<?xml version="1.0" standalone="no"?>
<!DOCTYPE svg PUBLIC "-//W3C//DTD SVG 20010904//EN"
 "http://www.w3.org/TR/2001/REC-SVG-20010904/DTD/svg10.dtd">
<svg version="1.0" xmlns="http://www.w3.org/2000/svg"
 width="2608.000000pt" height="2608.000000pt" viewBox="0 0 2608.000000 2608.000000"
 preserveAspectRatio="xMidYMid meet">
<metadata>
Created by potrace 1.14, written by Peter Selinger 2001-2017
</metadata>
<g transform="translate(0.000000,2608.000000) scale(0.100000,-0.100000)"
fill="#000000" stroke="none">
<path d="M0 13040 l0 -13040 13040 0 13040 0 0 13040 0 13040 -13040 0 -13040
0 0 -13040z m10160 10020 c0 -15 -8 -35 -19 -44 -17 -16 -20 -16 -35 -1 -21
21 -21 63 1 87 15 17 17 17 35 2 10 -10 18 -29 18 -44z m5830 -24 c0 -23 -7
-51 -15 -62 -15 -19 -15 -18 -36 6 -17 19 -20 34 -16 67 2 24 11 50 18 59 12
15 15 14 31 -6 11 -14 18 -39 18 -64z m-5846 -358 c22 -30 20 -91 -2 -118
l-19 -23 -16 24 c-20 27 -22 77 -5 114 14 31 22 31 42 3z m5836 3 c16 -31 12
-96 -8 -121 -16 -20 -19 -20 -31 -6 -22 26 -26 92 -7 121 20 30 32 32 46 6z
m-5832 -466 c15 -32 15 -65 2 -99 -20 -53 -60 -20 -60 49 0 69 36 99 58 50z
m5832 6 c22 -42 6 -131 -24 -131 -32 0 -47 90 -20 128 19 27 30 28 44 3z
m-7129 -406 c-14 -365 -41 -937 -81 -1714 -17 -322 -30 -611 -30 -644 0 -55
21 -106 326 -815 335 -776 491 -1132 584 -1330 l53 -112 51 -16 c85 -25 794
-218 1081 -294 645 -170 913 -256 958 -308 8 -9 40 -78 72 -152 108 -255 260
-550 283 -550 5 0 16 24 25 53 89 305 201 704 277 988 l93 346 -257 462 c-368
663 -495 871 -531 871 -22 0 -361 -602 -538 -957 -127 -254 -166 -354 -182
-470 -15 -108 -35 -139 -96 -152 -69 -15 -132 17 -166 83 -21 40 -12 110 18
143 29 31 101 65 123 57 11 -4 28 14 60 64 75 117 215 376 254 469 34 81 37
95 36 181 l-1 93 23 -22 c47 -44 83 -13 186 161 84 140 238 449 238 475 0 42
-125 280 -563 1076 -254 463 -260 474 -243 488 31 26 182 32 936 38 l785 6
170 310 c94 170 171 312 172 316 1 3 -32 32 -73 65 -95 74 -134 137 -134 216
0 97 65 203 159 258 61 36 145 37 210 3 59 -31 147 -120 171 -173 44 -96 19
-167 -105 -297 l-83 -87 45 -79 c25 -44 97 -177 160 -297 l115 -216 122 -6
c66 -3 443 -10 836 -16 393 -7 737 -14 763 -17 l48 -5 -57 -107 c-31 -58 -146
-266 -254 -461 -395 -712 -530 -970 -530 -1018 0 -31 98 -229 200 -407 127
-222 170 -265 224 -229 15 9 28 15 31 13 2 -2 -1 -26 -7 -52 -8 -37 -6 -64 6
-120 32 -141 161 -402 270 -541 53 -69 75 -86 135 -106 154 -51 99 -288 -62
-267 -47 6 -83 30 -115 78 -21 29 -23 42 -19 94 5 50 1 72 -24 136 -64 165
-338 696 -527 1019 -110 188 -160 260 -183 260 -27 0 -154 -216 -444 -755
-151 -281 -265 -484 -276 -491 -17 -10 -9 -136 17 -263 44 -218 163 -675 266
-1021 44 -149 53 -170 71 -170 29 0 104 142 264 495 57 127 109 235 116 241 7
7 314 91 682 189 662 174 1189 321 1315 367 l65 23 57 115 c84 169 309 678
631 1430 l285 665 -38 690 c-59 1064 -71 1352 -76 1720 l-4 340 75 -220 c139
-404 1195 -3693 1195 -3721 0 -7 -41 -106 -91 -221 -50 -114 -176 -404 -279
-643 -501 -1160 -838 -1927 -923 -2100 -29 -59 -37 -68 -90 -93 -81 -39 -605
-211 -1087 -357 -223 -68 -409 -127 -414 -131 -9 -8 -39 -365 -66 -801 l-13
-197 -491 -295 c-270 -162 -557 -336 -638 -385 l-148 -91 0 128 c1 171 19 312
40 312 18 0 29 -37 35 -116 11 -142 15 -164 32 -164 9 0 50 19 92 41 64 36
964 573 997 596 13 9 42 318 50 533 6 133 -6 323 -19 337 -3 3 -21 -8 -40 -23
-75 -63 -1622 -1407 -1769 -1537 l-156 -138 23 -52 c12 -29 51 -113 85 -187
129 -279 196 -443 215 -525 13 -56 13 -63 -5 -98 -30 -56 -25 -114 16 -220 20
-51 37 -109 37 -131 2 -35 -4 -44 -60 -95 -34 -31 -156 -115 -271 -188 l-210
-131 -26 73 c-36 100 -34 133 7 172 69 67 224 149 243 130 12 -11 -36 -66
-116 -131 -84 -70 -103 -106 -56 -106 31 0 133 54 247 131 117 78 156 114 164
148 5 25 -16 101 -62 219 -9 23 -14 20 -149 -86 -76 -60 -208 -168 -293 -240
-85 -71 -178 -144 -208 -162 -49 -30 -56 -32 -79 -19 -44 23 -231 169 -454
352 -118 97 -217 177 -220 177 -9 0 -80 -223 -80 -251 0 -14 10 -35 23 -46 25
-23 217 -138 306 -182 142 -72 166 -10 31 79 -42 28 -110 91 -110 102 0 30
153 -46 217 -108 39 -37 43 -45 43 -90 0 -57 -32 -134 -55 -134 -26 0 -89 36
-312 177 -142 91 -213 142 -217 156 -6 24 -3 37 30 156 29 100 31 191 7 232
-32 53 -9 119 189 549 52 113 104 231 116 262 l21 57 -157 144 c-386 353
-1769 1554 -1802 1565 -6 2 -10 -155 -10 -417 l0 -421 23 -14 c175 -110 905
-551 974 -588 73 -39 100 -49 130 -46 l38 3 6 90 c9 144 28 194 46 128 21 -75
2 -343 -24 -343 -23 0 -526 282 -853 478 -256 154 -367 228 -374 249 -7 25
-34 409 -50 716 -7 142 -17 261 -22 266 -5 4 -97 34 -204 65 -107 32 -280 85
-385 118 -104 32 -345 106 -535 163 -190 57 -370 112 -400 122 l-55 18 -178
415 c-98 228 -271 629 -384 890 -255 589 -622 1451 -693 1626 l-53 131 46 154
c164 547 793 2510 1075 3354 115 344 148 432 150 405 2 -19 -1 -170 -7 -335z
m1297 -47 c17 -17 15 -53 -4 -89 -22 -44 -48 -35 -52 18 -5 66 24 103 56 71z
m5832 -7 c22 -42 6 -131 -24 -131 -16 0 -36 42 -36 75 0 33 20 75 36 75 7 0
18 -9 24 -19z m10 -475 c0 -23 -7 -51 -15 -62 -15 -19 -15 -18 -36 6 -17 19
-20 34 -16 67 2 24 11 50 18 59 12 15 15 14 31 -6 11 -14 18 -39 18 -64z
m-5834 -7 c4 -23 0 -41 -10 -54 -16 -20 -16 -20 -36 4 -22 26 -27 90 -8 109
17 17 47 -15 54 -59z m4 -449 c0 -22 -8 -47 -18 -60 l-19 -23 -16 24 c-10 13
-17 39 -17 59 0 20 7 46 17 59 l16 24 19 -23 c10 -13 18 -38 18 -60z m5814 64
c22 -22 21 -96 -2 -124 -17 -21 -19 -21 -32 -4 -19 22 -19 106 -1 127 16 21
16 21 35 1z m-5823 -465 c22 -43 -17 -133 -48 -108 -26 23 -8 129 23 129 7 0
18 -10 25 -21z m5829 2 c23 -44 6 -131 -26 -131 -32 0 -45 90 -18 128 19 27
30 28 44 3z m-5780 -433 c31 -50 22 -108 -15 -108 -11 0 -45 92 -45 123 0 30
39 19 60 -15z m5746 17 c3 -8 -3 -29 -14 -47 -22 -35 -80 -84 -89 -75 -10 11
29 107 50 122 27 19 46 19 53 0z m-5528 -415 c26 -39 29 -78 6 -87 -21 -8 -51
30 -60 74 -12 62 16 69 54 13z m5282 13 c0 -55 -72 -136 -86 -98 -12 30 43
125 72 125 9 0 14 -10 14 -27z m-5073 -375 c78 -84 68 -152 -12 -73 -35 36
-52 75 -40 94 10 17 19 13 52 -21z m4861 -19 c4 -22 -45 -79 -69 -79 -27 0
-24 32 7 70 28 32 57 36 62 9z m-4613 -399 c8 -16 15 -36 15 -45 0 -37 -60 -3
-80 46 -11 26 -11 32 0 39 19 12 47 -5 65 -40z m4389 44 c24 -9 19 -45 -11
-76 -28 -29 -68 -37 -76 -15 -6 17 19 63 45 81 26 19 22 18 42 10z m-4186
-410 c28 -33 50 -99 38 -111 -8 -9 -96 79 -102 103 -14 54 23 58 64 8z m3952
-23 c0 -26 -38 -81 -56 -81 -14 0 -16 7 -11 40 3 23 13 53 22 67 17 25 18 26
31 8 8 -10 14 -26 14 -34z m-7700 -1539 l19 -714 264 -446 264 -447 319 -6
c175 -4 331 -10 347 -14 96 -26 -70 -54 -323 -56 -146 -1 -254 -9 -266 -21 -8
-9 78 -171 268 -503 223 -390 325 -582 369 -692 5 -13 4 -25 -1 -28 -18 -11
-48 38 -780 1305 -243 421 -445 769 -450 773 -9 10 -17 -134 -25 -463 -9 -335
-25 -445 -65 -445 -42 0 -56 178 -65 805 -6 505 -16 903 -21 897 -2 -2 -76
-266 -163 -588 -88 -321 -185 -674 -215 -783 l-56 -199 708 -711 707 -711 -45
-7 c-25 -3 -100 -7 -167 -7 -97 -1 -123 -4 -123 -15 0 -30 178 -84 1245 -375
956 -260 1269 -341 1281 -328 2 2 -40 51 -93 108 -54 57 -108 118 -119 134
-47 67 -48 79 -54 514 l-5 414 -175 47 c-96 26 -362 98 -590 160 -428 116
-722 206 -762 234 -22 16 -22 16 19 16 69 0 920 -221 1398 -363 l180 -53 3
-471 2 -471 113 -108 c184 -176 266 -220 569 -308 191 -56 278 -76 329 -76 56
0 57 -6 -45 184 -14 27 -26 65 -26 84 0 35 0 35 20 17 29 -27 95 -131 305
-490 207 -352 276 -459 300 -469 19 -7 22 1 30 84 7 74 27 124 39 95 19 -50
29 -330 35 -970 l6 -710 79 132 c44 73 100 156 126 185 42 46 49 51 64 39 21
-18 21 -22 -9 -65 -32 -47 -31 -82 3 -181 35 -100 214 -475 225 -472 9 3 98
207 173 399 67 170 94 183 94 44 0 -76 2 -86 36 -141 46 -77 79 -117 259 -314
l150 -164 113 119 c164 172 278 310 313 379 28 56 30 65 23 133 -7 74 0 87 28
55 25 -29 52 -89 108 -238 62 -169 100 -255 111 -255 24 0 186 310 229 440 30
87 31 100 25 177 -4 54 -3 83 3 83 22 0 91 -94 162 -219 41 -71 76 -128 78
-126 2 2 10 250 18 552 13 539 28 915 41 1043 l7 65 8 -40 c5 -22 7 -58 4 -80
-7 -47 5 -100 23 -100 17 0 103 138 309 496 241 420 316 538 340 539 20 0 15
-18 -37 -129 -54 -116 -74 -178 -61 -186 18 -11 274 50 450 107 182 59 232 92
448 296 l142 135 -1 391 c-1 215 2 405 6 421 21 88 24 93 78 113 118 44 960
273 1297 353 91 21 183 39 205 39 40 -1 40 -1 15 -15 -69 -39 -394 -135 -900
-265 -513 -131 -590 -162 -640 -250 l-25 -45 -6 -380 c-5 -283 -10 -390 -20
-420 -8 -24 -44 -72 -91 -122 -78 -82 -94 -113 -60 -113 47 0 902 221 1737
450 595 163 705 198 705 225 0 14 -41 20 -233 31 l-107 6 702 710 c387 391
704 718 706 728 9 50 -226 939 -358 1360 -42 131 -54 159 -66 147 -17 -16 -25
-258 -32 -924 -5 -548 -10 -715 -19 -725 -39 -38 -51 55 -63 472 -5 190 -12
355 -16 368 -10 33 -24 24 -72 -49 -115 -171 -774 -1289 -1043 -1769 -64 -113
-111 -186 -122 -188 -10 -2 -17 3 -17 12 0 25 167 346 327 626 199 350 323
573 323 581 0 11 -101 19 -260 19 -203 0 -360 17 -360 40 0 17 68 23 370 29
l315 6 79 140 c43 77 164 288 268 468 l189 329 19 681 c11 375 21 701 22 724
2 31 82 -252 307 -1090 168 -623 315 -1169 327 -1214 l22 -81 -625 -631 c-344
-348 -624 -633 -622 -635 2 -2 218 -11 479 -21 261 -9 495 -19 519 -23 48 -8
229 42 -2434 -672 -1444 -388 -1935 -526 -1983 -557 -33 -20 -127 -168 -296
-463 l-146 -255 -1 -710 c0 -390 -4 -732 -7 -760 l-7 -50 -51 80 c-28 44 -80
131 -115 192 -35 62 -66 113 -69 113 -3 0 -81 -151 -175 -335 -93 -184 -172
-335 -175 -335 -3 0 -22 51 -43 113 -45 130 -122 297 -139 297 -18 0 -189
-172 -345 -348 -80 -89 -149 -162 -154 -162 -4 0 -124 126 -265 280 -142 154
-259 279 -260 277 -1 -1 -39 -105 -83 -231 -45 -126 -83 -231 -85 -234 -3 -2
-54 94 -115 215 -122 243 -192 369 -220 397 -18 18 -20 17 -62 -37 -24 -31
-73 -108 -109 -171 l-65 -115 -3 87 c-1 48 -11 400 -21 782 l-19 695 -202 340
c-111 187 -207 345 -213 352 -7 6 -232 70 -502 142 -269 71 -840 225 -1267
340 -428 116 -1083 292 -1455 392 -972 259 -1174 316 -1187 338 -10 16 122 21
555 21 242 0 439 3 439 7 0 5 -284 292 -632 640 l-632 632 11 43 c6 23 157
578 335 1234 255 940 324 1182 326 1145 1 -25 11 -367 22 -759z m1420 -3632
c21 -11 46 -30 54 -42 20 -28 21 -100 1 -138 -17 -33 -61 -70 -83 -70 -60 0
-148 -131 -410 -610 -109 -201 -272 -495 -361 -654 -88 -158 -161 -294 -161
-301 0 -13 110 -183 1783 -2765 1515 -2337 1616 -2490 1627 -2469 14 25 159
492 189 610 38 146 61 279 61 348 0 145 83 229 184 187 93 -39 85 -187 -13
-265 -66 -52 -126 -192 -262 -605 -66 -198 -119 -364 -119 -368 0 -9 438 -689
718 -1113 209 -318 392 -585 401 -585 8 0 -6 -24 296 500 147 256 293 507 323
559 l54 93 85 -143 c47 -79 162 -276 255 -438 254 -440 335 -570 353 -570 6 0
101 140 211 312 111 172 361 557 555 855 l352 544 -96 291 c-154 465 -229 632
-302 677 -41 25 -60 70 -57 135 4 89 50 122 160 113 80 -7 84 -13 93 -183 5
-86 20 -199 35 -273 61 -298 173 -612 218 -612 18 0 61 54 189 237 133 189
194 281 962 1468 342 528 822 1268 1066 1645 245 377 553 852 684 1055 131
204 294 455 362 558 68 104 123 192 123 197 0 5 -100 190 -221 412 -464 844
-631 1113 -721 1159 -88 45 -116 183 -48 244 31 28 102 31 144 6 40 -25 76
-91 76 -140 0 -92 147 -406 440 -941 101 -184 230 -426 287 -538 l104 -202
-28 -48 c-114 -196 -460 -738 -1006 -1577 -237 -363 -645 -991 -907 -1395
-262 -404 -703 -1084 -980 -1510 -277 -426 -505 -784 -507 -795 -4 -20 202
-643 254 -769 16 -38 34 -71 40 -73 28 -10 189 189 462 572 422 590 441 627
373 730 -18 27 -31 54 -29 59 7 22 41 17 83 -14 68 -49 86 -42 167 65 107 143
108 176 8 280 -61 63 -106 123 -99 131 7 7 76 -46 156 -121 83 -77 74 -79 155
28 83 110 91 152 62 332 -28 171 -21 270 19 297 6 4 34 14 62 23 28 8 57 22
64 30 7 9 16 54 20 101 8 101 25 125 105 149 29 8 63 23 76 34 22 17 23 25 21
109 -3 103 4 115 68 132 22 5 58 15 80 21 56 14 68 41 52 118 -18 85 -15 108
12 126 13 9 86 25 162 36 230 33 281 54 368 150 95 106 246 337 246 376 0 15
-17 39 -46 66 l-45 42 23 22 c26 25 279 153 301 153 38 0 33 -328 -6 -368 -14
-13 -21 -11 -69 16 -32 19 -62 29 -73 26 -22 -6 -240 -312 -282 -396 -20 -40
-28 -72 -31 -133 -4 -69 16 -326 34 -432 l5 -33 -93 0 c-51 0 -99 -4 -107 -9
-14 -9 -13 -55 5 -167 8 -53 -15 -79 -77 -89 -24 -4 -63 -15 -85 -25 -50 -22
-59 -48 -44 -131 6 -33 8 -68 5 -79 -7 -21 -59 -44 -124 -55 -25 -4 -54 -17
-67 -30 -22 -22 -23 -28 -17 -118 l6 -95 -29 -15 c-16 -8 -87 -25 -158 -37
-200 -34 -295 -72 -363 -142 -85 -89 -68 -191 56 -332 34 -38 61 -73 61 -78 0
-19 -60 25 -154 111 -55 50 -102 91 -105 91 -10 -1 -149 -212 -161 -243 -12
-34 -5 -69 26 -123 25 -42 31 -79 15 -88 -5 -3 -28 8 -52 24 -24 16 -52 30
-61 30 -47 0 -145 -128 -628 -814 l-323 -459 43 -136 c79 -252 121 -405 137
-505 l17 -98 -25 -19 c-45 -35 -393 -288 -620 -452 -197 -142 -761 -553 -1205
-879 -170 -125 -429 -304 -495 -342 l-46 -26 -104 72 c-510 350 -1617 1140
-2061 1471 -155 115 -228 175 -228 187 0 53 48 252 114 474 l75 249 -258 366
c-142 201 -344 489 -448 640 -104 151 -197 279 -206 285 -12 8 -28 2 -70 -27
-29 -20 -61 -37 -70 -37 -25 0 -21 38 8 85 48 78 33 130 -85 285 l-62 81 -94
-90 c-88 -85 -154 -133 -154 -113 0 5 27 40 61 78 128 145 142 250 46 342 -65
63 -165 100 -351 132 -179 31 -196 45 -196 160 0 77 -28 113 -107 136 -56 16
-93 43 -93 68 0 7 5 38 10 67 15 80 6 108 -44 129 -22 10 -61 21 -85 25 -62
10 -85 36 -77 89 18 112 19 158 5 167 -8 5 -56 9 -107 9 l-93 0 5 33 c18 106
38 363 34 432 -4 68 -10 90 -41 150 -49 92 -259 379 -280 383 -10 2 -38 -10
-64 -27 -58 -38 -68 -39 -81 -1 -29 83 -26 350 4 350 23 0 275 -128 302 -153
l23 -22 -45 -42 c-29 -27 -46 -51 -46 -66 0 -39 151 -270 246 -376 87 -96 138
-117 368 -150 80 -12 149 -27 164 -37 26 -17 26 -13 7 -154 -9 -62 5 -76 95
-98 127 -32 123 -27 115 -142 -7 -95 -6 -98 17 -114 12 -9 46 -23 74 -32 79
-23 95 -46 103 -149 8 -110 22 -125 116 -125 44 0 66 -5 75 -15 18 -21 8 -142
-26 -324 -23 -124 -25 -150 -14 -185 13 -47 60 -120 118 -186 l39 -44 74 68
c81 75 150 129 157 122 7 -8 -38 -67 -103 -136 -75 -79 -85 -110 -56 -176 26
-57 104 -168 133 -189 31 -21 39 -20 98 21 49 34 80 40 87 19 2 -6 -13 -35
-33 -65 -40 -62 -41 -89 -3 -168 66 -135 623 -912 777 -1082 34 -38 43 -43 58
-34 25 15 82 156 171 419 123 364 127 402 60 510 -48 78 -59 95 -1654 2550
-1662 2560 -1693 2608 -1693 2655 0 69 79 232 370 760 197 357 343 643 393
768 32 79 37 104 37 171 0 91 12 134 43 149 37 18 114 14 157 -8z m1230 -336
c593 -157 932 -256 1063 -309 32 -13 139 -183 389 -618 l148 -259 0 -291 c0
-305 -14 -611 -29 -662 l-8 -30 -12 28 c-17 42 -31 345 -31 674 l0 293 -237
415 c-131 228 -242 415 -248 415 -5 0 -255 65 -555 145 -565 150 -866 223
-877 211 -14 -14 21 -106 109 -293 l92 -193 240 0 241 0 532 -532 533 -533 0
-645 0 -645 182 -182 c101 -101 187 -183 192 -183 4 0 68 58 141 129 119 114
214 191 236 191 9 0 27 -55 138 -438 43 -150 82 -276 85 -280 7 -6 44 28 219
198 93 91 97 93 97 65 0 -17 -9 -153 -21 -304 -22 -289 -20 -341 10 -341 26 0
64 46 179 217 55 81 114 161 131 177 l31 30 0 -42 c0 -189 -344 -3097 -370
-3125 -23 -25 -107 305 -294 1152 l-133 604 -404 525 c-485 631 -780 1009
-901 1154 -81 98 -92 107 -116 102 -44 -10 -193 -75 -427 -187 -224 -107 -324
-147 -370 -147 -74 0 20 69 281 208 149 79 531 264 570 276 23 7 -11 50 653
-819 356 -466 558 -725 566 -725 2 0 10 -3 19 -6 13 -5 16 2 16 45 0 61 -45
295 -106 553 -73 310 -87 425 -46 375 20 -24 135 -495 302 -1242 187 -834 350
-1518 364 -1533 17 -16 29 26 37 129 11 122 38 372 148 1339 86 751 123 1102
116 1108 -9 9 -33 -19 -115 -136 -46 -64 -115 -159 -154 -211 -62 -84 -70 -92
-78 -72 -8 23 4 301 25 579 7 89 10 162 7 162 -3 0 -32 -27 -65 -61 -77 -79
-172 -159 -189 -159 -8 0 -30 55 -55 138 -156 504 -170 542 -199 542 -28 0
-89 -47 -214 -167 l-112 -106 -170 174 c-94 96 -391 410 -661 699 -716 768
-840 892 -946 939 -36 17 -66 21 -168 21 l-124 0 235 -239 c263 -266 396 -414
405 -450 8 -32 -35 -142 -190 -481 -168 -369 -268 -602 -262 -609 3 -2 126
115 273 260 147 146 295 289 330 317 68 56 135 95 146 85 21 -21 -14 -76 -141
-219 -196 -220 -927 -944 -940 -930 -10 9 190 467 515 1181 l159 350 -87 95
c-150 163 -543 543 -600 581 -30 20 -73 42 -95 48 -51 14 -229 14 -292 1 -46
-10 -49 -13 -68 -63 -16 -41 -29 -57 -66 -79 -133 -83 -320 -45 -382 76 -79
153 40 356 209 356 100 0 205 -60 242 -138 11 -23 27 -39 47 -45 17 -6 226
-13 466 -16 l436 -6 614 -639 614 -639 3 549 2 549 -492 492 -493 493 -372 0
c-205 0 -373 -4 -373 -8 0 -4 16 -24 36 -43 101 -96 357 -375 380 -415 50 -84
-7 -86 -106 -3 -76 63 -581 551 -576 556 2 3 72 8 156 13 164 10 259 25 287
45 16 12 16 16 0 69 -10 31 -54 128 -98 217 -80 162 -124 273 -114 289 3 4 26
2 52 -6 27 -8 244 -67 483 -130z m6650 141 c0 -17 -58 -153 -152 -354 -59
-129 -107 -235 -106 -236 2 -2 93 -10 203 -19 110 -9 219 -19 242 -22 l43 -5
-234 -230 c-250 -245 -354 -337 -416 -369 -51 -26 -59 -12 -26 45 23 39 280
320 380 414 20 19 36 39 36 43 0 4 -168 8 -373 8 l-372 0 -496 -497 -496 -498
13 -500 c7 -275 13 -515 13 -533 1 -19 5 -32 9 -30 9 3 403 424 886 946 l280
302 180 1 c325 1 679 16 719 30 21 7 66 39 100 71 144 134 257 142 382 27 67
-62 88 -108 83 -181 -10 -142 -174 -252 -324 -219 -57 13 -86 36 -180 143 -40
45 -91 58 -227 58 -127 0 -180 -15 -255 -71 -124 -93 -632 -614 -632 -647 0
-23 77 -201 323 -742 229 -506 325 -722 358 -804 l20 -49 -58 51 c-102 88
-610 590 -784 775 -241 255 -326 364 -300 390 7 7 18 5 35 -6 33 -22 173 -154
396 -372 207 -203 297 -285 312 -285 26 0 -47 181 -273 670 -98 214 -179 393
-179 397 0 4 154 162 343 351 l342 343 -140 -3 c-162 -3 -176 -8 -282 -97 -72
-62 -834 -860 -1532 -1609 -63 -67 -119 -122 -125 -122 -6 0 -54 43 -106 96
-112 113 -206 194 -225 194 -16 0 -57 -103 -110 -275 -116 -380 -125 -405
-143 -405 -20 1 -73 40 -176 134 -42 38 -78 67 -80 65 -3 -2 4 -128 15 -279
23 -337 25 -487 6 -472 -7 6 -72 96 -145 200 -72 103 -143 199 -158 212 l-27
25 7 -102 c9 -153 55 -579 166 -1545 55 -477 100 -883 100 -902 0 -45 17 -55
31 -19 20 52 118 465 248 1048 266 1186 375 1653 396 1695 l13 25 7 -28 c9
-35 -13 -174 -66 -432 -22 -104 -56 -264 -75 -355 -35 -171 -40 -214 -25 -208
19 6 575 715 1025 1306 168 221 212 272 231 272 44 0 168 -51 380 -155 337
-166 517 -280 502 -318 -16 -43 -88 -16 -504 187 -175 86 -326 156 -336 156
-19 0 -172 -189 -482 -595 -386 -505 -587 -767 -701 -911 -63 -80 -126 -164
-140 -186 -65 -103 -125 -312 -254 -893 -93 -417 -174 -765 -207 -889 -22 -82
-28 -95 -35 -75 -38 121 -406 3165 -384 3186 5 5 116 -142 189 -252 71 -107
137 -187 150 -182 9 3 13 85 17 305 3 165 9 304 13 308 13 13 38 -8 99 -81 70
-82 115 -117 147 -113 36 4 79 98 145 318 31 102 73 232 93 288 l36 104 71
-69 c39 -37 124 -120 188 -183 73 -71 121 -111 127 -105 4 6 88 99 185 209
l176 199 0 626 0 626 533 532 532 533 238 2 239 3 95 215 c52 118 97 229 100
247 6 33 5 33 -28 27 -81 -16 -381 -94 -884 -231 l-540 -146 -225 -396 -225
-396 -6 -420 c-6 -392 -18 -568 -38 -588 -23 -23 -40 269 -41 683 l0 304 117
206 c162 285 266 460 334 562 l58 86 93 31 c168 55 724 214 1413 405 92 25
115 29 115 21z m-9017 -716 c11 -18 -69 -180 -297 -604 -86 -159 -156 -296
-156 -303 0 -19 49 -100 208 -342 203 -308 292 -459 292 -494 0 -7 -12 -17
-27 -21 -24 -6 -33 -1 -61 32 -84 96 -504 753 -519 811 -6 27 13 72 140 316
144 278 290 528 339 579 46 49 63 54 81 26z m10945 -36 c61 -78 276 -460 408
-725 l68 -138 -27 -56 c-90 -183 -401 -656 -497 -756 -61 -63 -69 -69 -89 -59
-11 7 -21 17 -21 23 0 21 59 116 240 389 232 348 234 352 235 454 0 96 -4 108
-132 338 -188 338 -274 527 -252 553 18 22 35 16 67 -23z m-11624 -286 c-54
-100 -148 -273 -210 -384 l-112 -201 162 -244 c90 -134 188 -287 220 -340 124
-211 101 -241 -36 -48 -97 135 -408 624 -408 640 0 14 274 506 351 628 35 57
78 120 94 140 28 34 30 35 33 14 2 -14 -34 -93 -94 -205z m12215 103 c130
-204 354 -640 354 -690 0 -34 -58 -137 -189 -338 -143 -218 -294 -418 -294
-388 0 33 135 260 323 540 l125 187 -95 167 c-122 213 -280 503 -309 566 -12
27 -20 55 -17 63 8 21 44 -17 102 -107z m-12620 -97 c-5 -14 -73 -150 -151
-302 l-141 -276 31 -61 c17 -34 76 -136 130 -226 110 -182 165 -284 160 -300
-8 -24 -291 370 -354 493 -25 50 -25 51 -9 107 24 81 133 322 200 442 69 124
112 175 131 159 9 -8 10 -17 3 -36z m13169 -156 c85 -148 171 -338 191 -420
10 -43 9 -51 -13 -95 -69 -136 -344 -517 -361 -500 -10 10 66 149 196 360 149
242 151 202 -27 554 -101 198 -135 276 -130 290 7 17 10 16 36 -14 15 -19 64
-98 108 -175z m-13538 65 c0 -10 -56 -120 -125 -245 -69 -125 -125 -231 -125
-236 0 -6 42 -77 94 -158 99 -157 169 -288 164 -305 -7 -20 -102 99 -216 271
-63 96 -115 179 -115 185 0 18 160 303 219 393 45 68 86 113 101 113 2 0 3 -8
3 -18z m13807 -14 c50 -56 277 -462 269 -483 -2 -7 -56 -91 -119 -186 -108
-166 -206 -289 -207 -261 0 25 70 151 169 301 l102 153 -84 146 c-132 230
-182 333 -170 346 11 10 19 7 40 -16z"/>
<path d="M8670 21273 c-35 -75 -70 -178 -175 -513 -62 -201 -267 -849 -455
-1440 -188 -591 -342 -1082 -342 -1090 -1 -21 1108 -2573 1237 -2846 l52 -111
89 -32 c104 -38 452 -147 1042 -327 l422 -128 283 -245 c215 -186 758 -653
1010 -869 9 -8 19 -13 22 -10 3 2 8 57 11 121 7 112 6 118 -19 170 -15 30 -57
89 -93 133 -37 43 -358 370 -713 727 l-645 647 -416 0 c-524 0 -835 17 -793
43 30 19 250 27 728 27 l520 0 570 -570 c313 -313 573 -570 577 -570 5 0 8
170 8 378 l0 377 -618 618 -617 617 -435 0 c-416 0 -640 9 -690 28 l-24 9 27
7 c69 17 307 26 717 26 l445 0 634 -634 634 -634 -6 -429 -7 -428 126 -133
c167 -177 167 -176 174 -417 6 -215 10 -230 82 -288 50 -41 108 -77 124 -77 6
0 16 11 22 24 38 84 265 903 322 1166 l19 85 -58 140 c-100 240 -566 1285
-725 1627 -20 43 -44 82 -54 87 -34 18 -1110 312 -1940 530 -657 173 -656 173
-630 227 20 43 66 42 248 -5 85 -23 168 -41 183 -41 35 0 41 -19 -79 283 -241
610 -655 1532 -707 1576 -13 10 -16 9 -21 -6 -14 -48 -36 -405 -51 -813 -21
-598 -43 -883 -76 -988 -14 -43 -47 -62 -66 -36 -17 23 -17 106 2 391 52 802
172 3587 157 3631 -7 19 -18 14 -32 -15z"/>
<path d="M17374 21265 c-17 -70 25 -1122 106 -2645 44 -817 50 -959 50 -1130
0 -155 -9 -217 -32 -232 -20 -12 -24 -10 -36 17 -28 62 -44 259 -67 855 -27
684 -40 850 -71 898 -19 29 -29 28 -61 -5 -41 -45 -112 -197 -332 -712 -309
-721 -435 -1040 -417 -1058 8 -9 163 23 313 64 111 30 136 27 114 -16 -33 -61
-304 -147 -1381 -436 -614 -165 -1132 -310 -1162 -326 -21 -11 -49 -68 -263
-534 -458 -996 -595 -1300 -595 -1317 0 -11 15 -74 34 -141 19 -67 86 -314
150 -548 141 -525 155 -569 174 -576 22 -9 96 33 152 86 62 59 70 90 80 301 5
118 12 176 24 204 10 24 66 89 141 166 l125 126 0 440 0 439 633 633 632 632
425 0 c497 0 749 -15 723 -41 -19 -19 -231 -28 -663 -29 l-445 0 -618 -618
-617 -617 0 -378 c0 -207 3 -377 8 -377 4 0 264 257 577 570 l570 570 495 0
c456 -1 652 -8 726 -26 28 -7 28 -7 4 -16 -44 -16 -358 -28 -776 -28 l-420 0
-650 -652 c-358 -359 -679 -688 -713 -732 -99 -125 -106 -143 -106 -268 0
-115 9 -139 44 -122 11 5 234 195 496 422 631 548 707 609 861 685 74 38 120
53 724 236 217 66 478 146 580 178 l184 58 219 505 c530 1226 1050 2437 1054
2455 8 38 -947 3026 -978 3059 -4 5 -11 -4 -15 -19z"/>
<path d="M13019 20850 c-23 -13 -104 -134 -189 -280 -163 -280 -903 -1633
-976 -1783 l-28 -57 58 -118 c106 -213 594 -1094 641 -1156 7 -10 18 -15 23
-12 33 20 203 576 348 1131 118 455 127 475 162 378 43 -122 86 -269 241 -833
111 -404 173 -617 190 -648 7 -12 17 -19 26 -16 20 8 117 153 207 309 75 129
499 905 520 950 11 25 28 -7 -765 1425 -228 412 -378 674 -400 698 -22 24 -33
26 -58 12z"/>
<path d="M11135 20260 c-75 -9 -119 -22 -130 -40 -7 -11 60 -140 338 -645 261
-473 412 -738 424 -742 6 -2 36 38 66 89 149 254 573 1021 662 1199 l54 107
-37 6 c-134 21 -1245 42 -1377 26z"/>
<path d="M14705 20263 c-371 -6 -1187 -32 -1192 -37 -7 -6 711 -1303 743
-1343 42 -54 73 -19 237 272 310 549 551 1008 563 1073 6 32 6 32 -32 32 -22
0 -61 2 -89 3 -27 2 -131 2 -230 0z"/>
<path d="M13012 18503 c-11 -26 -41 -115 -67 -198 -47 -151 -295 -1052 -295
-1071 0 -6 52 -109 116 -230 152 -286 247 -434 279 -434 18 0 375 613 375 644
0 19 -236 898 -295 1101 -55 189 -69 228 -82 232 -6 2 -19 -18 -31 -44z"/>
<path d="M12572 16948 c-67 -220 -253 -928 -306 -1168 -21 -96 -24 -122 -15
-155 20 -73 131 -338 266 -634 l134 -294 -132 -481 c-216 -793 -250 -929 -236
-941 170 -149 243 -205 267 -205 14 0 23 13 34 51 18 61 82 456 216 1336 141
921 221 1397 239 1416 14 14 55 -229 161 -943 204 -1372 282 -1867 297 -1895
7 -11 43 20 152 129 l143 143 -116 434 c-64 239 -147 549 -185 689 l-70 255
151 340 c83 187 177 406 210 487 l59 146 -35 146 c-91 377 -317 1185 -341
1223 -31 47 -74 -4 -194 -225 -83 -155 -241 -425 -246 -420 -1 1 -60 109 -130
238 -174 319 -246 430 -280 430 -7 0 -26 -46 -43 -102z"/>
<path d="M13016 15033 c-45 -203 -124 -685 -237 -1452 l-90 -613 87 -147 c97
-163 216 -342 241 -362 13 -12 21 -8 54 30 42 46 158 216 254 369 l58 94 -52
356 c-104 710 -153 1033 -206 1358 -59 356 -74 434 -86 434 -4 0 -14 -30 -23
-67z"/>
<path d="M13367 12728 c-40 -62 -131 -206 -202 -320 -71 -114 -130 -206 -131
-205 -1 1 -66 103 -144 227 -140 221 -208 317 -248 353 -19 18 -20 17 -57 -40
-79 -125 -281 -560 -292 -630 -5 -30 -1 -40 33 -75 81 -83 693 -588 714 -588
16 0 672 544 729 604 l22 24 -34 88 c-76 195 -298 674 -312 674 -3 0 -38 -51
-78 -112z"/>
<path d="M8532 8470 c-32 -13 -48 -58 -67 -183 -24 -163 -6 -207 83 -207 57 0
76 25 80 110 6 93 11 97 117 82 101 -15 125 -7 151 50 13 29 15 46 8 66 -11
32 -48 46 -173 67 -136 22 -174 25 -199 15z"/>
<path d="M17348 8450 c-59 -11 -124 -26 -144 -35 -35 -15 -36 -16 -31 -57 3
-22 15 -50 27 -62 19 -19 30 -21 125 -18 75 1 106 -1 112 -10 4 -7 10 -43 14
-81 8 -86 25 -107 89 -107 77 0 84 15 78 162 -9 220 -46 249 -270 208z"/>
<path d="M8712 8182 c-13 -13 -29 -70 -51 -184 -40 -198 -38 -208 40 -208 42
0 55 5 79 28 16 16 34 48 40 72 19 70 52 96 135 103 116 9 150 37 128 104 -12
38 -60 60 -182 83 -127 25 -166 25 -189 2z"/>
<path d="M17150 8186 c-47 -7 -96 -18 -107 -25 -54 -28 -68 -92 -30 -136 19
-23 32 -27 102 -32 69 -5 83 -10 107 -33 14 -15 32 -46 38 -70 6 -24 24 -56
40 -72 24 -23 37 -28 79 -28 77 0 80 12 42 201 -38 191 -46 203 -127 206 -32
0 -97 -4 -144 -11z"/>
<path d="M8909 7900 c-23 -14 -42 -124 -43 -253 -1 -103 0 -110 23 -128 30
-24 66 -24 91 1 10 10 29 54 41 96 30 101 42 109 145 95 64 -9 81 -9 99 3 29
19 38 66 22 113 -14 44 -18 45 -167 67 -119 18 -187 20 -211 6z"/>
<path d="M16929 7896 c-95 -17 -117 -29 -135 -73 -19 -44 -10 -89 20 -108 19
-13 36 -13 98 -5 108 15 122 8 148 -79 26 -89 60 -131 104 -131 54 0 71 29 69
115 -2 135 -36 244 -86 274 -30 19 -130 22 -218 7z"/>
<path d="M9128 7615 c-42 -24 -74 -137 -80 -283 -3 -56 0 -66 20 -82 34 -28
165 -55 267 -55 88 0 90 1 103 27 19 41 52 202 55 269 3 75 -9 86 -109 110
-114 27 -222 33 -256 14z"/>
<path d="M16785 7620 c-94 -14 -162 -31 -181 -45 -16 -11 -19 -25 -17 -77 2
-71 35 -233 55 -276 13 -26 15 -27 103 -27 102 0 233 27 267 54 20 16 22 27
20 86 -4 89 -28 212 -48 242 -30 47 -88 60 -199 43z"/>
<path d="M11157 5853 c-349 -1061 -458 -1403 -452 -1414 18 -27 904 -681 1009
-743 75 -45 126 -61 162 -52 37 10 85 62 132 144 157 273 238 422 250 459 29
87 -23 210 -207 498 -127 197 -823 1259 -831 1268 -4 5 -33 -67 -63 -160z"/>
<path d="M14780 5886 c-196 -265 -858 -1290 -968 -1500 l-31 -59 25 -56 c36
-81 226 -433 305 -564 37 -62 73 -113 81 -115 20 -4 727 491 1071 750 109 83
117 91 111 116 -37 151 -495 1515 -511 1520 -7 2 -44 -40 -83 -92z"/>
<path d="M13022 5294 c-27 -19 -130 -176 -206 -314 -32 -58 -132 -229 -222
-381 -90 -152 -167 -284 -170 -293 -6 -16 37 -17 594 -14 330 2 603 6 607 10
3 3 -3 25 -15 49 -70 137 -543 943 -559 953 -4 3 -17 -2 -29 -10z"/>
<path d="M12357 4183 c-100 -159 -277 -475 -277 -495 0 -12 20 -16 92 -22 190
-13 515 -3 535 18 4 4 -5 31 -21 59 -57 102 -291 476 -298 477 -4 0 -18 -17
-31 -37z"/>
<path d="M13657 4178 c-86 -113 -298 -480 -286 -493 25 -24 439 -30 538 -7 64
14 63 27 -21 194 -85 168 -179 330 -195 335 -6 2 -22 -11 -36 -29z"/>
<path d="M12098 3541 c-69 -3 -130 -10 -135 -14 -9 -9 -8 -10 133 -118 210
-161 759 -536 902 -616 l62 -35 53 34 c142 90 1007 717 1007 729 0 17 -62 21
-451 26 l-417 6 -76 -114 c-97 -147 -129 -184 -149 -176 -19 7 -75 83 -148
199 l-54 88 -300 -2 c-165 -1 -357 -4 -427 -7z"/>
<path d="M8736 11660 c-16 -5 -42 -22 -58 -37 -97 -92 -71 -225 54 -278 125
-52 248 25 248 155 0 66 -25 112 -77 143 -37 21 -125 31 -167 17z"/>
<path d="M17200 11658 c-106 -30 -151 -138 -97 -233 27 -48 119 -115 159 -115
66 0 163 80 188 155 26 77 -26 164 -113 190 -57 17 -86 18 -137 3z"/>
</g>
</svg>
