<?xml version="1.0" standalone="no"?>
<!DOCTYPE svg PUBLIC "-//W3C//DTD SVG 20010904//EN"
 "http://www.w3.org/TR/2001/REC-SVG-20010904/DTD/svg10.dtd">
<svg version="1.0" xmlns="http://www.w3.org/2000/svg"
 width="1000.000000pt" height="1000.000000pt" viewBox="0 0 1000.000000 1000.000000"
 preserveAspectRatio="xMidYMid meet">
<metadata>
Created by potrace 1.14, written by Peter Selinger 2001-2017
</metadata>
<g transform="translate(0.000000,1000.000000) scale(0.100000,-0.100000)"
fill="#000000" stroke="none">
<path d="M3876 8853 c-12 -12 -6 -33 9 -33 8 0 15 6 15 14 0 17 -14 28 -24 19z"/>
<path d="M6106 8845 c-6 -18 2 -45 15 -45 12 0 12 47 0 54 -5 3 -11 -1 -15 -9z"/>
<path d="M3874 8686 c-8 -21 3 -49 16 -41 5 3 10 15 10 25 0 25 -18 36 -26 16z"/>
<path d="M6106 8685 c-6 -18 2 -45 15 -45 5 0 9 14 9 30 0 32 -14 40 -24 15z"/>
<path d="M3870 8496 c0 -17 5 -26 16 -26 10 0 14 7 12 22 -5 32 -28 35 -28 4z"/>
<path d="M6106 8511 c-8 -12 3 -41 15 -41 5 0 9 7 9 15 0 8 0 18 1 22 1 12
-19 15 -25 4z"/>
<path d="M3352 8368 c-208 -640 -309 -956 -382 -1191 l-59 -189 58 -136 c31
-76 144 -340 251 -588 l194 -451 106 -32 c58 -18 161 -50 230 -71 69 -21 158
-48 198 -60 50 -15 72 -27 73 -38 1 -10 2 -33 4 -52 1 -19 6 -93 9 -164 4 -71
11 -136 16 -145 7 -13 289 -191 303 -191 2 0 39 -20 82 -45 58 -33 81 -41 87
-32 11 18 10 127 -2 127 -10 0 -14 -25 -10 -69 2 -21 -1 -23 -28 -18 -17 3
-111 56 -211 117 -99 60 -187 113 -195 116 -14 5 -16 31 -16 171 l0 165 58
-48 c74 -63 417 -359 462 -400 178 -159 230 -207 230 -213 0 -10 -70 -173 -80
-186 -21 -29 -49 -127 -42 -147 10 -29 8 -54 -8 -102 -15 -46 -16 -45 104
-120 96 -60 116 -61 116 -6 0 29 -18 49 -67 74 -44 22 -42 8 4 -31 42 -34 39
-54 -5 -32 -46 23 -132 81 -132 89 0 8 30 83 36 89 3 3 91 -64 104 -80 14 -17
155 -119 164 -119 6 0 18 6 27 13 19 15 108 88 123 102 26 24 105 85 109 85 3
0 12 -19 22 -42 l17 -43 -36 -31 c-44 -38 -122 -81 -131 -72 -4 3 11 22 32 41
46 43 38 58 -14 26 -55 -33 -62 -46 -50 -86 6 -18 14 -33 19 -33 13 0 171 105
191 127 17 20 17 22 0 69 -14 38 -16 57 -9 86 10 40 0 72 -80 245 l-42 91 27
23 c57 49 246 214 251 219 3 3 34 30 70 60 63 54 78 67 191 166 118 105 181
159 200 172 18 12 19 11 20 -20 4 -81 -8 -285 -16 -299 -7 -10 -415 -252 -420
-248 -3 3 -11 58 -14 104 -1 5 -5 5 -11 -1 -12 -12 -21 -137 -11 -151 3 -5
114 56 246 137 176 107 240 151 241 165 15 230 25 359 28 362 2 2 262 82 281
87 31 7 274 90 296 102 27 13 77 122 324 694 54 124 112 259 130 300 18 41 43
98 55 126 l21 51 -101 319 c-56 176 -121 380 -145 454 -122 383 -228 707 -236
720 -11 20 -3 -306 17 -630 2 -41 6 -129 9 -195 3 -66 7 -140 10 -164 4 -39
-8 -73 -96 -280 -56 -130 -111 -258 -124 -286 -12 -27 -47 -104 -76 -170 -29
-66 -59 -129 -66 -141 -14 -23 -76 -44 -338 -114 -82 -23 -157 -43 -165 -45
-8 -2 -78 -20 -155 -40 -139 -37 -140 -37 -157 -74 -82 -177 -120 -251 -127
-251 -13 0 -123 402 -136 501 -5 40 -2 53 28 105 19 32 53 95 77 139 82 155
163 295 171 295 12 0 103 -156 196 -338 61 -120 83 -173 83 -201 0 -64 56 -96
95 -56 30 29 22 63 -19 83 -54 27 -143 180 -153 265 -4 36 -10 47 -24 47 -10
0 -26 12 -37 28 -34 48 -112 198 -112 216 0 22 44 107 193 376 73 131 121 227
115 231 -9 6 -83 8 -506 14 -84 1 -156 6 -161 11 -4 5 -33 56 -64 114 l-55
105 39 44 c49 55 51 88 7 137 -69 75 -169 40 -185 -65 -3 -22 22 -64 51 -85
14 -10 26 -22 26 -26 0 -10 -121 -229 -129 -235 -5 -2 -142 -5 -306 -5 -286
-1 -355 -5 -355 -19 0 -4 70 -135 155 -291 85 -157 155 -293 155 -304 0 -22
-80 -175 -117 -224 -19 -26 -28 -31 -38 -22 -11 9 -14 4 -13 -27 1 -59 -111
-273 -143 -273 -21 0 -49 -32 -49 -57 0 -41 64 -70 88 -40 5 6 15 36 21 66 18
84 254 533 276 525 13 -5 76 -112 207 -348 l88 -159 -50 -186 c-71 -265 -94
-341 -103 -341 -5 0 -33 53 -63 118 -30 64 -58 124 -62 132 -5 8 -24 23 -43
32 -29 14 -179 62 -229 73 -23 4 -465 124 -522 141 -10 3 -41 62 -79 147 -34
78 -72 165 -84 192 -13 28 -44 100 -69 160 -26 61 -51 119 -56 130 -61 133
-92 216 -93 250 0 38 9 238 18 405 9 149 15 278 20 439 4 91 8 168 11 173 3 4
1 8 -4 8 -6 0 -28 -55 -50 -122z m-16 -380 c-4 -95 -8 -220 -11 -278 -10 -249
-16 -361 -21 -460 -3 -58 -7 -148 -9 -200 -4 -86 -7 -134 -20 -362 -3 -41 0
-70 7 -74 29 -18 39 53 53 416 4 91 8 176 9 190 2 14 4 42 4 63 1 20 6 37 10
37 22 0 323 -692 308 -707 -3 -3 -39 3 -81 13 -66 16 -78 16 -85 4 -12 -19 11
-30 115 -58 44 -12 242 -65 440 -118 198 -53 377 -101 397 -106 31 -9 40 -17
58 -62 13 -28 38 -85 57 -126 19 -41 60 -131 90 -200 30 -69 63 -143 73 -165
72 -161 74 -168 57 -242 -18 -85 -116 -408 -124 -410 -6 -2 -26 9 -43 24 -30
27 -33 34 -35 99 -2 94 -9 111 -66 169 l-49 51 3 164 3 165 -242 244 -242 244
-168 0 c-282 -1 -289 -2 -276 -15 8 -8 76 -12 218 -12 l208 -2 235 -234 236
-235 0 -142 c1 -79 -1 -143 -4 -143 -4 0 -103 97 -221 215 l-215 215 -225 -1
c-124 0 -234 -4 -245 -9 -26 -11 -9 -12 254 -15 l205 -2 251 -254 c301 -305
308 -314 307 -375 -1 -26 -4 -49 -6 -52 -4 -4 -104 73 -126 98 -3 3 -34 30
-70 60 -35 30 -70 60 -76 65 -6 6 -40 35 -74 65 -35 30 -84 73 -109 95 -38 33
-68 47 -156 74 -61 18 -195 59 -298 92 l-188 60 -31 67 c-23 51 -295 675 -447
1027 -17 38 -17 41 10 125 52 162 221 695 266 839 50 163 82 251 90 251 3 0 2
-78 -1 -172z m3417 -83 c41 -126 98 -304 126 -395 29 -91 56 -176 61 -190 48
-135 101 -326 96 -346 -3 -12 -85 -207 -182 -431 -97 -224 -203 -472 -237
-550 l-61 -143 -61 -19 c-33 -11 -114 -36 -180 -56 -66 -20 -131 -40 -145 -45
-14 -4 -59 -18 -100 -31 -70 -21 -156 -69 -218 -123 -15 -13 -50 -43 -77 -67
-28 -24 -75 -65 -105 -91 -30 -26 -71 -61 -90 -78 -89 -81 -122 -104 -129 -91
-14 22 -1 85 25 125 14 21 140 153 280 294 l255 255 187 2 c266 3 280 4 262
15 -9 6 -112 10 -239 10 l-224 0 -218 -219 c-169 -169 -219 -215 -220 -198 0
12 0 78 0 147 l0 124 236 236 235 235 205 1 c188 0 228 4 213 20 -3 3 -101 6
-218 7 l-213 2 -244 -244 -243 -244 0 -167 0 -167 -38 -39 c-60 -61 -70 -83
-73 -154 -1 -36 -8 -77 -15 -91 -16 -31 -63 -64 -75 -52 -7 7 -72 228 -85 288
-2 11 -15 59 -28 108 l-24 87 65 143 c35 78 80 175 99 215 19 41 34 75 34 77
0 2 29 64 64 138 41 87 70 136 82 139 46 13 508 140 594 163 259 69 370 110
370 135 0 4 -36 -1 -80 -12 -45 -12 -83 -18 -86 -16 -7 8 31 104 152 388 104
244 138 310 155 293 11 -11 19 -96 24 -248 12 -356 25 -466 50 -425 12 19 8
198 -10 504 -2 34 -6 102 -9 151 -9 158 -21 410 -31 705 -5 115 -3 172 3 165
5 -5 44 -113 85 -240z m-1626 -112 c61 -109 127 -227 146 -263 20 -36 72 -130
116 -210 44 -80 76 -149 72 -155 -4 -5 -27 -46 -51 -90 -140 -262 -213 -385
-229 -385 -7 0 -81 241 -96 313 -15 68 -79 277 -86 277 -9 0 -21 -35 -49 -150
-30 -116 -107 -381 -124 -421 l-14 -32 -14 24 c-50 81 -168 294 -238 430 l-23
46 68 129 c99 188 309 566 350 629 19 30 41 55 48 55 8 0 63 -89 124 -197z
m-364 -37 c21 -2 41 -6 44 -9 8 -8 -269 -511 -288 -522 -8 -6 -47 56 -133 212
-139 255 -168 313 -154 317 7 3 20 6 28 9 17 5 446 -1 503 -7z m1012 3 c10
-11 -251 -495 -281 -520 -9 -7 -18 -9 -24 -3 -14 14 -289 508 -285 513 2 2 84
5 182 8 98 3 179 5 180 6 4 5 223 0 228 -4z m-679 -966 c25 -98 48 -181 51
-186 4 -7 -100 -201 -131 -242 -15 -20 -15 -20 -33 4 -10 14 -44 71 -75 128
l-57 104 50 182 c47 175 85 301 97 322 8 13 40 -90 98 -312z m-228 -290 c11
-16 43 -72 72 -125 29 -54 56 -95 60 -93 9 5 100 164 100 174 1 11 58 76 63
71 6 -7 78 -264 116 -413 l30 -118 -43 -102 c-24 -56 -60 -140 -81 -186 -21
-49 -35 -92 -32 -105 6 -22 54 -202 107 -395 l30 -113 -55 -54 c-33 -33 -57
-49 -59 -42 -6 17 -34 192 -72 446 -3 20 -9 64 -14 97 -5 33 -12 78 -15 100
-3 22 -8 51 -10 65 -3 14 -7 41 -10 60 -11 87 -15 117 -20 140 -6 33 -13 74
-21 128 -7 47 -18 42 -27 -13 -16 -91 -57 -346 -62 -385 -3 -25 -15 -99 -25
-165 -11 -66 -22 -140 -25 -165 -3 -25 -8 -52 -10 -60 -4 -15 -9 -49 -20 -132
-9 -67 -19 -101 -32 -105 -10 -4 -95 62 -101 78 -2 5 29 128 69 274 l72 266
-53 116 c-70 155 -100 232 -100 259 0 12 7 50 16 83 8 34 17 69 19 79 2 10 10
42 19 70 8 29 15 56 16 60 0 4 4 21 9 37 5 17 19 67 31 113 13 45 26 82 31 82
4 0 16 -12 27 -27z m146 -768 c4 -22 13 -79 21 -127 9 -48 18 -106 21 -130 3
-24 12 -81 19 -128 8 -47 17 -102 20 -124 4 -37 10 -78 21 -148 18 -119 18
-118 -35 -198 -83 -124 -79 -119 -102 -90 -10 14 -39 59 -64 100 -44 73 -46
77 -39 135 3 33 7 62 9 65 2 3 6 30 10 60 3 30 8 62 10 70 2 8 6 38 10 65 3
28 8 61 10 75 2 14 13 84 25 155 40 246 40 247 46 257 9 13 11 8 18 -37z m217
-971 l61 -138 -35 -31 c-19 -16 -84 -71 -144 -121 l-109 -91 -50 39 c-27 22
-58 47 -69 56 -11 9 -45 37 -75 61 -30 25 -65 57 -78 73 l-24 28 64 127 c35
70 68 129 73 130 6 2 42 -46 80 -107 39 -60 72 -110 76 -110 3 0 14 15 25 33
60 105 130 205 137 198 4 -4 35 -70 68 -147z"/>
<path d="M3877 8344 c-11 -11 -8 -44 3 -44 15 0 24 30 13 41 -5 5 -12 6 -16 3z"/>
<path d="M6111 8336 c-12 -14 -5 -46 10 -46 5 0 9 14 9 30 0 34 -3 36 -19 16z"/>
<path d="M6106 8175 c-6 -18 2 -45 15 -45 12 0 12 47 0 54 -5 3 -11 -1 -15 -9z"/>
<path d="M3872 8159 c1 -12 9 -24 16 -27 9 -3 13 3 10 19 -1 12 -9 24 -16 27
-9 3 -13 -3 -10 -19z"/>
<path d="M3874 7996 c-8 -21 3 -49 16 -41 5 3 10 15 10 25 0 25 -18 36 -26 16z"/>
<path d="M6107 7998 c-2 -7 -2 -21 1 -31 3 -13 8 -15 17 -7 7 6 11 20 8 30 -6
23 -19 26 -26 8z"/>
<path d="M3875 7819 c-4 -11 -4 -23 -2 -26 9 -8 27 7 27 22 0 23 -18 27 -25 4z"/>
<path d="M6108 7823 c-6 -22 1 -43 13 -43 5 0 9 14 9 30 0 33 -15 41 -22 13z"/>
<path d="M3895 7655 c8 -37 12 -42 26 -28 7 7 3 17 -11 34 l-21 24 6 -30z"/>
<path d="M6093 7668 c-13 -18 -24 -48 -16 -48 11 0 43 43 37 51 -7 12 -10 11
-21 -3z"/>
<path d="M6003 7519 c-7 -7 -13 -22 -13 -33 0 -19 1 -19 16 -4 9 8 14 23 12
32 -2 14 -5 15 -15 5z"/>
<path d="M3977 7500 c3 -11 12 -20 20 -20 10 0 13 6 9 16 -3 9 -6 18 -6 20 0
2 -6 4 -14 4 -9 0 -12 -7 -9 -20z"/>
<path d="M4060 7361 c11 -22 29 -35 36 -28 9 8 -20 47 -34 47 -9 0 -10 -5 -2
-19z"/>
<path d="M5911 7357 c-6 -8 -8 -17 -4 -20 7 -8 33 11 33 24 0 13 -16 11 -29
-4z"/>
<path d="M4146 7222 c-7 -12 22 -38 31 -28 4 3 0 14 -9 22 -9 10 -18 12 -22 6z"/>
<path d="M5830 7215 c-7 -9 -10 -18 -7 -21 10 -11 37 5 37 21 0 19 -14 19 -30
0z"/>
<path d="M4226 7082 c-6 -10 21 -52 34 -52 12 0 1 37 -15 50 -7 6 -16 7 -19 2z"/>
<path d="M5740 7053 c1 -27 1 -27 15 -9 14 19 12 36 -6 36 -5 0 -9 -12 -9 -27z"/>
<path d="M2735 6528 c-37 -139 -95 -352 -127 -472 l-59 -219 43 -44 c24 -25
132 -133 240 -241 109 -109 198 -199 198 -202 0 -3 -76 -5 -168 -5 -221 1
-239 -4 -137 -35 44 -13 85 -25 90 -26 8 -2 360 -96 520 -139 56 -16 351 -96
465 -126 41 -12 82 -22 90 -24 42 -9 451 -123 454 -126 2 -2 38 -62 81 -134
l77 -129 6 -236 c3 -129 5 -263 5 -297 -1 -35 1 -63 2 -63 2 0 20 27 40 60 21
34 42 59 49 57 6 -2 36 -51 66 -110 31 -58 58 -109 62 -112 3 -3 18 29 33 72
16 43 31 82 35 86 4 4 24 -11 44 -35 21 -24 65 -72 98 -107 l61 -64 29 34 c16
19 59 64 96 102 75 76 73 77 108 -28 9 -27 19 -53 23 -57 3 -4 35 49 70 117
34 69 64 125 66 125 2 0 23 -32 46 -70 23 -39 44 -69 46 -66 3 2 5 133 5 290
l1 286 62 110 c95 165 95 165 172 188 105 31 339 96 548 152 316 85 333 89
545 146 113 29 221 58 240 64 19 6 93 26 164 45 71 19 131 37 134 40 3 3 -21
6 -54 6 -32 1 -81 3 -109 4 -27 1 -90 3 -139 5 l-88 2 183 186 c101 102 210
211 242 243 l57 58 -61 223 c-33 123 -62 230 -64 238 -7 33 -78 299 -96 361
-10 36 -19 74 -19 83 0 9 -3 16 -7 16 -5 0 -9 -44 -9 -98 -1 -53 -4 -176 -7
-272 l-6 -175 -103 -180 -103 -180 -110 -1 c-140 -2 -145 -2 -145 -12 0 -9 45
-13 155 -16 56 -1 69 -4 67 -16 -2 -8 -45 -89 -96 -180 -116 -205 -149 -270
-142 -278 8 -7 2 -16 86 133 176 311 382 647 390 635 4 -7 9 -72 9 -144 2
-136 7 -176 22 -176 5 0 10 96 10 213 1 189 3 266 8 386 3 78 28 0 137 -414
l33 -129 -147 -150 c-81 -83 -202 -206 -270 -274 -68 -68 -122 -126 -120 -128
2 -2 32 -4 65 -6 106 -4 81 -15 -237 -102 -316 -87 -640 -169 -646 -163 -2 2
7 15 21 29 47 48 53 71 54 224 1 80 4 151 7 159 10 24 83 53 249 95 201 52
327 89 340 102 7 6 0 8 -20 4 -25 -4 -220 -52 -287 -71 -10 -3 -26 -7 -35 -9
-10 -2 -45 -12 -78 -22 -33 -10 -65 -19 -72 -20 -7 -1 -34 -9 -61 -18 -37 -13
-51 -23 -54 -39 -2 -12 -4 -89 -3 -172 l0 -150 -50 -48 c-27 -27 -63 -59 -80
-72 -30 -23 -141 -65 -222 -83 -51 -12 -54 -2 -23 67 11 24 18 46 16 49 -6 6
-52 -68 -155 -245 -45 -79 -86 -145 -92 -148 -5 -4 -9 8 -9 26 0 52 -13 24
-16 -34 -5 -108 -17 -503 -15 -524 1 -34 -6 -28 -33 25 -13 26 -33 56 -45 66
l-21 19 4 -34 c4 -38 -20 -107 -67 -188 l-31 -55 -12 30 c-6 16 -24 59 -39 97
-33 81 -45 92 -45 39 0 -43 -14 -63 -113 -173 l-56 -61 -49 53 c-104 114 -122
141 -122 188 0 53 -16 34 -56 -69 -21 -55 -42 -100 -45 -100 -10 0 -99 196
-99 217 0 10 5 24 12 31 6 6 9 15 5 18 -11 11 -44 -24 -77 -80 l-30 -51 -1
220 c-1 121 -3 247 -4 280 -1 33 -3 79 -4 103 -1 50 -21 57 -21 7 0 -64 -9
-54 -132 155 -48 80 -93 154 -102 165 -14 18 -15 18 -16 3 0 -10 9 -32 20 -50
11 -18 20 -37 20 -42 0 -12 -76 1 -163 29 -99 31 -122 44 -184 102 l-53 48 0
181 0 181 -52 17 c-29 9 -62 18 -73 21 -11 2 -45 11 -75 20 -30 9 -62 18 -70
20 -8 2 -86 22 -172 44 -165 43 -188 47 -172 32 14 -14 536 -163 572 -164 9 0
12 -38 13 -151 1 -197 -2 -186 62 -255 20 -22 37 -42 37 -45 0 -7 -101 19
-482 123 -462 127 -478 132 -478 142 0 5 25 8 56 8 30 -1 58 1 61 4 2 3 -116
128 -264 277 l-269 271 63 227 c34 124 70 257 79 294 9 38 19 67 21 64 2 -2 6
-131 9 -287 3 -156 7 -293 9 -304 2 -11 4 -26 4 -32 1 -7 5 -13 10 -13 21 0
28 64 30 254 1 58 4 87 11 80 7 -7 255 -431 352 -604 77 -136 118 -197 118
-175 0 10 -57 118 -154 290 -110 196 -113 180 39 184 49 1 94 6 99 11 11 11
-1 12 -159 14 l-99 1 -102 171 -101 172 -3 93 c-2 52 -4 130 -5 174 -2 44 -4
133 -5 198 0 64 -2 117 -4 117 -1 0 -33 -114 -71 -252z"/>
<path d="M3298 5079 c-13 -7 -18 -23 -18 -53 0 -46 -49 -153 -170 -371 -33
-60 -79 -147 -101 -192 -34 -71 -38 -86 -28 -105 6 -13 67 -111 136 -218 130
-203 174 -271 443 -685 89 -137 216 -333 282 -435 66 -102 190 -293 275 -425
119 -183 156 -247 155 -270 -1 -33 -65 -232 -89 -278 -14 -28 -15 -28 -35 -10
-25 22 -157 201 -245 330 -65 97 -66 100 -47 163 8 25 7 25 -19 7 -33 -21 -51
-14 -79 31 -28 46 -26 68 11 105 17 16 31 34 31 40 0 11 -49 -28 -63 -50 -14
-23 -32 -14 -60 30 -24 35 -27 49 -22 82 3 22 8 58 11 80 3 22 7 45 9 52 5 15
-13 27 -43 29 -29 1 -31 4 -36 43 -4 36 -13 47 -48 65 -15 8 -24 21 -25 41 0
17 -2 35 -2 41 -1 6 -20 16 -42 23 -41 12 -41 13 -35 52 6 35 4 40 -16 48 -20
8 -91 19 -126 20 -23 1 -101 82 -133 138 -29 50 -30 55 -15 72 9 10 16 20 16
24 0 8 -78 53 -108 62 -23 7 -23 6 -21 -57 3 -87 5 -91 39 -73 27 14 27 14 73
-49 83 -116 81 -107 64 -302 -2 -14 5 -19 23 -21 14 0 31 -1 38 -2 9 -1 12
-14 10 -41 -2 -45 1 -51 45 -65 29 -9 32 -14 32 -50 0 -34 4 -41 30 -54 37
-17 45 -28 45 -64 0 -31 14 -39 102 -57 63 -12 121 -46 126 -74 6 -29 -6 -62
-34 -96 -39 -46 -25 -45 25 2 l44 40 19 -23 c41 -53 50 -79 37 -110 -15 -37
-7 -45 24 -24 l25 16 148 -213 c81 -117 160 -229 175 -249 l28 -35 -34 -116
c-53 -185 -72 -149 170 -326 234 -171 664 -475 694 -491 22 -12 87 29 303 189
70 52 218 160 329 240 293 211 300 217 295 243 -11 58 -27 118 -49 185 l-24
73 152 214 c190 270 212 295 230 265 3 -5 13 -10 21 -10 12 0 12 5 -1 36 -15
36 -14 38 16 85 17 27 34 49 38 49 4 0 22 -16 41 -35 42 -44 69 -47 30 -3 -58
63 -45 122 33 152 32 12 133 36 153 36 2 0 4 21 6 47 3 46 4 48 41 56 33 8 38
13 37 36 -4 52 0 59 30 66 37 8 45 20 45 69 0 39 0 40 38 39 42 0 41 -3 28
102 -10 82 2 128 56 204 53 74 64 84 77 71 21 -21 46 -11 47 18 3 52 1 104 -4
109 -6 5 -106 -42 -122 -58 -7 -7 -4 -14 8 -20 27 -16 20 -41 -33 -117 -54
-77 -81 -96 -150 -106 -106 -16 -116 -23 -99 -73 9 -24 -5 -41 -37 -46 -33 -5
-45 -18 -41 -45 5 -35 -9 -62 -32 -62 -25 0 -39 -19 -43 -60 -3 -28 -10 -38
-36 -49 -18 -8 -32 -22 -33 -30 -2 -28 0 -65 6 -119 6 -47 4 -58 -19 -93 -15
-21 -30 -39 -34 -39 -4 0 -21 14 -39 30 -47 44 -63 36 -19 -9 36 -37 38 -42
27 -68 -6 -16 -23 -41 -37 -57 -24 -26 -27 -26 -49 -12 -29 19 -38 9 -20 -24
10 -18 10 -30 2 -49 -16 -36 -104 -164 -206 -300 -106 -141 -106 -141 -118
-141 -5 0 -33 72 -62 159 l-54 159 24 39 c21 35 130 204 234 363 23 36 86 133
140 215 53 83 131 202 172 265 465 715 638 984 708 1099 l39 64 -44 86 c-25
47 -72 133 -104 191 -81 143 -166 324 -171 362 -6 44 -35 71 -68 63 -26 -7
-32 -19 -29 -57 1 -9 21 -37 44 -60 38 -38 111 -153 190 -298 14 -25 55 -100
93 -168 l67 -122 -26 -34 c-14 -19 -26 -37 -26 -39 0 -3 -22 -38 -49 -79 -26
-40 -124 -190 -216 -333 -93 -143 -205 -316 -250 -385 -44 -69 -104 -161 -133
-205 -28 -44 -85 -132 -126 -195 -41 -63 -105 -162 -142 -220 -92 -142 -290
-441 -307 -462 -21 -27 -35 -22 -52 20 -28 64 -64 219 -68 287 -3 36 -6 68 -9
70 -11 11 -59 12 -73 1 -25 -18 -22 -66 4 -87 28 -23 69 -115 116 -256 30 -92
34 -116 25 -134 -7 -11 -53 -85 -104 -162 -91 -140 -209 -320 -276 -425 -41
-64 -20 -86 -176 180 -61 104 -115 193 -120 198 -5 5 -58 -77 -134 -209 -69
-120 -128 -217 -132 -215 -8 5 -185 272 -331 496 l-95 148 39 120 c57 173 76
219 110 257 31 36 35 53 19 84 -12 22 -52 25 -69 5 -7 -8 -14 -36 -17 -63 -9
-82 -86 -363 -100 -363 -5 0 -282 421 -478 725 -31 50 -138 214 -236 365 -99
151 -198 304 -220 340 -22 36 -115 179 -206 319 l-165 253 39 72 c250 459 296
534 321 529 15 -4 41 38 37 61 -5 37 -53 56 -88 35z m110 -1854 c17 -6 15 -30
-3 -49 -10 -10 -26 -13 -50 -9 -36 6 -38 5 -49 -48 -4 -18 -12 -25 -26 -24
-28 2 -34 10 -31 52 4 93 13 103 88 91 32 -5 64 -10 71 -13z m3332 0 c13 -16
22 -107 11 -122 -21 -29 -61 -4 -61 38 0 28 -2 29 -44 29 -44 0 -74 19 -61 39
17 28 135 40 155 16z m-3311 -96 c54 -11 73 -35 45 -56 -10 -7 -27 -13 -38
-13 -27 0 -38 -9 -56 -45 -14 -27 -23 -31 -60 -26 -6 0 -9 11 -6 24 2 12 7 40
11 62 13 68 20 72 104 54z m3236 -6 c8 -21 18 -78 19 -113 1 -23 -6 -27 -42
-21 -5 0 -16 17 -25 36 -13 28 -22 35 -46 35 -31 0 -64 25 -58 44 5 14 57 31
106 34 29 2 40 -2 46 -15z m-3134 -103 c22 0 41 -32 32 -55 -4 -13 -14 -16
-39 -12 -37 6 -64 -12 -64 -42 0 -29 -26 -46 -46 -30 -12 10 -14 25 -10 72 4
33 9 64 12 69 4 6 25 8 52 4 25 -3 53 -6 63 -6z m3026 4 c28 -5 43 -33 49 -88
4 -30 1 -46 -10 -55 -20 -17 -33 -8 -54 37 -16 34 -20 37 -56 34 -45 -4 -59
10 -44 44 13 27 58 39 115 28z m-2934 -119 c20 -8 23 -58 7 -116 -10 -35 -11
-36 -58 -33 -26 1 -59 7 -75 13 -26 10 -27 13 -21 63 10 83 17 91 77 85 29 -3
60 -8 70 -12z m2887 1 c6 -8 14 -40 17 -70 5 -53 5 -56 -20 -65 -15 -6 -47
-13 -72 -17 -42 -5 -45 -4 -56 23 -6 15 -12 50 -13 78 -1 47 0 50 29 55 59 12
103 10 115 -4z m-2095 -771 c273 -419 287 -442 287 -489 0 -27 -45 -115 -113
-224 -32 -51 -56 -42 -249 101 -219 162 -230 171 -230 183 0 28 192 595 199
588 5 -5 52 -76 106 -159z m1390 -147 c52 -160 92 -294 87 -297 -5 -3 -22 -16
-38 -28 -79 -61 -316 -230 -386 -275 l-27 -18 -34 58 c-53 87 -117 214 -117
229 0 31 396 637 410 628 5 -3 52 -136 105 -297z m-740 -53 c137 -231 164
-284 147 -289 -26 -7 -442 -5 -442 2 0 22 220 382 234 382 2 0 29 -43 61 -95z
m-252 -416 c32 -50 57 -97 57 -104 0 -11 -24 -14 -117 -12 -65 1 -117 6 -116
10 2 15 108 197 114 197 3 0 31 -41 62 -91z m470 44 c14 -27 37 -70 51 -96
l25 -48 -22 -8 c-28 -11 -180 -12 -197 -1 -9 6 -4 22 22 66 50 85 82 134 89
134 3 0 17 -21 32 -47z m-353 -223 c27 -48 58 -85 70 -85 8 0 30 23 48 51 l33
51 152 -2 c211 -4 194 -2 166 -24 -13 -10 -106 -77 -207 -149 l-183 -131 -42
27 c-219 142 -383 262 -369 271 6 3 81 6 167 6 129 0 158 -3 165 -15z"/>
<path d="M3626 5001 c-3 -4 15 -50 39 -102 25 -52 45 -99 45 -106 0 -12 -96
-32 -141 -28 -16 1 -29 -1 -29 -5 0 -10 212 -215 237 -228 60 -32 11 42 -99
150 -21 20 -38 38 -38 41 0 2 64 4 143 3 l142 -1 188 -188 187 -187 0 -211 0
-210 -132 137 c-73 76 -180 186 -238 245 l-105 108 -173 3 -173 3 -25 32 c-32
41 -81 52 -123 27 -100 -59 -35 -195 78 -164 24 6 45 20 52 33 7 12 17 25 23
29 21 15 114 8 145 -9 17 -10 85 -73 151 -139 135 -137 128 -113 72 -234 -16
-36 -41 -90 -55 -120 -13 -30 -34 -75 -45 -100 -81 -180 -109 -250 -101 -250
12 0 303 289 367 364 44 51 50 66 29 66 -15 0 -51 -32 -180 -158 -110 -109
-110 -114 -13 101 98 218 98 217 84 236 -22 28 -101 111 -165 176 -35 34 -63
65 -63 68 0 15 87 6 116 -12 32 -19 97 -83 213 -207 217 -232 334 -356 388
-412 l63 -64 56 51 c30 28 61 51 68 51 8 0 28 -51 51 -122 20 -68 41 -126 44
-131 4 -4 29 11 54 34 l47 41 -5 -79 c-2 -43 -5 -78 -5 -78 -1 0 -2 -28 -3
-62 -2 -35 1 -63 5 -63 4 0 33 36 64 80 30 44 58 80 61 80 5 0 0 -58 -21 -250
-3 -30 -9 -77 -11 -105 -3 -27 -8 -61 -10 -75 -2 -14 -7 -54 -11 -90 -3 -36
-8 -78 -10 -95 -2 -16 -6 -57 -10 -90 -3 -33 -8 -71 -10 -85 -2 -14 -7 -61
-10 -105 -4 -44 -8 -82 -10 -84 -6 -7 -14 4 -19 25 -2 11 -27 118 -55 239 -28
121 -53 229 -56 240 -15 77 -18 89 -104 453 -13 51 -26 95 -31 98 -13 8 -12
-1 26 -175 19 -88 35 -170 35 -183 l0 -23 -23 25 c-25 28 -105 131 -311 399
-120 157 -141 181 -160 175 -45 -13 -295 -147 -313 -166 -18 -21 -18 -21 12
-14 16 4 81 32 144 62 166 80 153 81 236 -27 39 -51 75 -97 80 -103 6 -6 62
-78 126 -161 63 -82 146 -190 183 -238 l68 -88 34 -157 c86 -394 131 -562 135
-500 0 7 2 22 4 33 2 11 7 45 10 75 4 30 8 66 10 80 2 14 6 50 10 80 3 30 8
66 10 80 2 14 7 48 10 75 3 28 7 66 10 85 3 19 7 60 11 90 3 30 7 66 9 80 2
14 9 72 15 130 15 147 20 190 26 230 12 88 14 161 4 155 -6 -4 -33 -40 -60
-81 -55 -81 -76 -94 -72 -44 0 3 3 55 7 115 l6 110 -38 -35 c-20 -19 -45 -44
-55 -54 -24 -25 -32 -16 -53 59 -53 192 -55 196 -74 185 -11 -5 -44 -33 -76
-61 l-56 -52 -70 69 -69 68 0 247 0 247 -206 206 -205 206 -93 0 -93 0 -38 84
c-20 46 -36 89 -34 94 3 7 95 -13 234 -49 336 -88 316 -81 334 -114 9 -17 48
-86 88 -155 l71 -125 5 -185 c6 -212 5 -190 15 -190 10 0 15 82 15 251 l0 116
-48 84 c-97 170 -148 245 -174 257 -43 19 -262 82 -371 107 -44 10 -172 46
-194 55 -14 5 -27 6 -30 1z m-202 -546 c10 -8 20 -27 22 -43 7 -61 -68 -95
-114 -52 -61 57 25 146 92 95z"/>
<path d="M6355 5002 c-25 -4 -449 -125 -536 -151 -64 -20 -64 -21 -115 -103
-29 -46 -73 -120 -99 -165 l-46 -82 2 -155 c2 -134 13 -262 19 -216 1 8 3 24
6 35 2 11 5 93 6 182 l1 163 88 152 87 153 103 28 c362 97 450 119 454 115 2
-2 -15 -45 -37 -95 l-40 -93 -92 0 -91 0 -204 -204 -204 -204 -1 -240 -1 -239
-49 -59 c-61 -72 -83 -94 -93 -94 -5 0 -38 29 -73 65 -35 36 -67 61 -71 57 -4
-4 -21 -54 -39 -112 -54 -173 -55 -174 -119 -108 l-41 43 -1 -30 c-1 -17 -1
-72 -1 -122 0 -51 -3 -93 -8 -93 -5 0 -34 36 -64 80 -31 44 -61 80 -67 80 -6
0 -8 -4 -5 -8 5 -8 11 -57 21 -167 3 -33 8 -71 10 -85 2 -14 7 -53 10 -87 3
-34 8 -71 10 -83 2 -12 7 -51 10 -88 3 -37 8 -74 10 -82 2 -8 7 -44 10 -80 4
-36 9 -73 11 -84 2 -10 6 -44 9 -75 4 -31 8 -67 11 -81 2 -14 7 -47 10 -75 3
-27 7 -59 9 -70 1 -11 6 -48 10 -83 4 -34 11 -64 14 -66 4 -3 28 91 55 207 69
305 104 445 122 480 9 16 55 80 103 141 47 61 99 129 116 151 16 22 35 47 42
55 6 8 65 84 129 168 65 83 124 152 130 152 7 0 76 -31 154 -69 136 -67 192
-81 156 -42 -23 25 -152 97 -244 136 -63 26 -83 31 -95 22 -8 -7 -50 -59 -93
-117 -44 -57 -87 -114 -96 -125 -9 -11 -74 -94 -144 -185 -70 -91 -129 -167
-131 -169 -13 -16 -7 27 27 187 21 100 34 185 29 188 -5 3 -9 4 -10 2 -5 -22
-18 -78 -79 -343 -40 -170 -73 -317 -75 -326 -5 -26 -64 -280 -77 -331 -6 -27
-14 -48 -18 -48 -4 0 -8 23 -9 51 -1 29 -3 54 -5 58 -2 3 -7 38 -11 76 -3 39
-7 81 -9 95 -2 14 -6 54 -10 90 -4 36 -10 79 -12 95 -3 17 -7 50 -9 75 -2 25
-6 61 -9 80 -2 19 -7 67 -11 105 -3 39 -8 81 -10 95 -9 49 -16 160 -11 160 6
0 102 -134 110 -153 6 -15 26 11 21 27 -2 6 -6 60 -9 119 -3 60 -9 113 -12
118 -12 20 13 7 51 -26 22 -19 45 -35 51 -35 6 0 26 52 44 115 46 161 43 159
119 89 l63 -58 82 86 c45 48 119 127 163 175 45 48 117 125 160 170 263 275
260 273 338 273 l50 0 -132 -132 -132 -133 78 -170 c83 -181 106 -238 92 -233
-5 2 -66 58 -136 126 -70 67 -131 122 -136 122 -33 0 18 -61 234 -277 100
-101 185 -183 189 -183 7 0 -30 86 -155 360 -120 264 -112 236 -78 279 16 20
75 80 130 133 107 104 132 116 213 105 29 -4 51 -16 77 -41 41 -40 74 -46 121
-21 34 17 58 60 52 90 -6 30 -51 73 -83 80 -31 7 -61 -6 -102 -43 -30 -29 -39
-30 -255 -33 l-122 -3 -88 -94 c-121 -132 -226 -244 -299 -321 l-63 -66 -1
115 c-1 63 -3 156 -4 206 l-2 92 188 188 189 189 140 1 c77 0 140 -2 140 -4 0
-2 -39 -45 -86 -95 -82 -86 -97 -121 -36 -81 31 20 222 204 222 215 0 3 -19 7
-42 8 -64 2 -129 9 -133 12 -2 2 19 53 46 113 27 60 48 110 47 111 -2 1 -12 0
-23 -3z m313 -548 c38 -26 28 -85 -19 -110 -32 -16 -61 -7 -86 25 -47 61 40
131 105 85z"/>
<path d="M2889 4718 c-31 -35 -179 -309 -179 -332 0 -32 196 -336 217 -336 29
0 13 32 -97 201 -44 67 -80 126 -80 130 0 5 9 25 20 44 87 155 159 304 150
310 -6 3 -20 -4 -31 -17z"/>
<path d="M7090 4715 c0 -9 34 -83 76 -164 66 -127 76 -153 70 -182 -3 -19 -46
-95 -96 -169 -62 -93 -86 -138 -79 -145 16 -16 65 44 157 193 l83 133 -50 97
c-98 194 -161 287 -161 237z"/>
<path d="M2681 4676 c-7 -8 -48 -77 -91 -152 l-78 -136 61 -97 c47 -76 101
-157 134 -200 2 -2 6 -2 9 2 7 7 -47 99 -123 210 l-54 78 49 87 c94 166 135
259 93 208z"/>
<path d="M7300 4682 c0 -4 36 -72 80 -150 44 -79 80 -145 80 -148 0 -3 -24
-43 -54 -87 -57 -87 -116 -184 -116 -193 0 -3 4 -2 10 1 14 9 167 239 174 263
8 23 -72 188 -144 300 -15 22 -30 29 -30 14z"/>
<path d="M2488 4613 c-19 -21 -83 -148 -103 -202 -13 -37 -12 -41 22 -97 30
-51 76 -115 105 -148 24 -29 2 21 -43 95 -75 123 -75 125 -38 195 57 105 80
156 77 166 -2 5 -11 1 -20 -9z"/>
<path d="M7497 4624 c-3 -4 18 -54 48 -113 30 -59 55 -114 55 -123 0 -9 -27
-62 -61 -118 -33 -56 -58 -104 -55 -107 5 -6 87 103 123 164 22 39 24 46 12
80 -24 76 -110 229 -122 217z"/>
<path d="M2343 4560 c-11 -11 -38 -55 -61 -96 l-41 -76 26 -41 c42 -69 95
-138 100 -133 5 5 -48 103 -80 147 l-19 27 51 92 c52 94 59 118 24 80z"/>
<path d="M7641 4570 c0 -8 21 -53 48 -99 l48 -85 -37 -55 c-20 -31 -45 -72
-55 -91 l-18 -35 22 20 c12 10 43 52 67 92 l46 72 -41 75 c-48 86 -80 129 -80
106z"/>
</g>
</svg>
